{"title":"San.Andreas.2015.HQ.CAM.NEW.SOURCE.X264.AC3.MRG","uid":11997069,"size":980464059,"categoryP":"video","categoryS":"movies","magnet":"?xt=urn:btih:7c3ff7662cfadbbeaaa67a8c48cdfd1c800b27a2&amp;dn=San.Andreas.2015.HQ.CAM.NEW.SOURCE.X264.AC3.MRG&amp;tr=udp%3A%2F%2Ftracker.openbittorrent.com%3A80&amp;tr=udp%3A%2F%2Fopen.demonii.com%3A1337&amp;tr=udp%3A%2F%2Ftracker.coppersurfer.tk%3A6969&amp;tr=udp%3A%2F%2Fexodus.desync.com%3A6969","seeders":6,"leechers":3,"uploader":"makintos13","files":15,"time":1433689338,"description":"screens:\n &lt;a href=&quot;\nhttp://imgmak.com/U0&quot; rel=&quot;nofollow&quot; target=&quot;_NEW&quot;&gt;\nhttp://imgmak.com/U0&lt;/a&gt;\n &lt;a href=&quot;\nhttp://imgmak.com/UA&quot; rel=&quot;nofollow&quot; target=&quot;_NEW&quot;&gt;\nhttp://imgmak.com/UA&lt;/a&gt;\n &lt;a href=&quot;\nhttp://imgmak.com/UD&quot; rel=&quot;nofollow&quot; target=&quot;_NEW&quot;&gt;\nhttp://imgmak.com/UD&lt;/a&gt;\n &lt;a href=&quot;\nhttp://imgmak.com/Uf&quot; rel=&quot;nofollow&quot; target=&quot;_NEW&quot;&gt;\nhttp://imgmak.com/Uf&lt;/a&gt;\n\n::::::::::::::::::::::::::::::::::\n\nSan.Andreas.2015.HQ.CAM.NEW.SOURCE.X264.AC3.MRG.\n\nnew source \n\nsample within...\n\nty...clay\n\nFormat                      : Matroska\nFormat version              : Version 2\nFile size                   : 896 MiB\nDuration                    : 1h 46mn\nOverall bit rate            : 1 179 Kbps\n\nVideo\nID                          : 1\nFormat                      : AVC\nFormat/Info                 : Advanced Video Codec\nFormat profile              : &lt;a class=&quot;__cf_email__&quot; href=&quot;/cdn-cgi/l/email-protection&quot; data-cfemail=&quot;d69ebfb1be969ae2f8e7&quot;&gt;[email&amp;#160;protected]&lt;/a&gt;&lt;script data-cfhash='f9e31' type=&quot;text/javascript&quot;&gt;\n/* &lt;![CDATA[ */!function(){try{var t=&quot;currentScript&quot;in document?document.currentScript:function(){for(var t=document.getElementsByTagName(&quot;script&quot;),e=t.length;e--;)if(t[e].getAttribute(&quot;data-cfhash&quot;))return t[e]}();if(t&amp;&amp;t.previousSibling){var e,r,n,i,c=t.previousSibling,a=c.getAttribute(&quot;data-cfemail&quot;);if(a){for(e=&quot;&quot;,r=parseInt(a.substr(0,2),16),n=2;a.length-n;n+=2)i=parseInt(a.substr(n,2),16)^r,e+=String.fromCharCode(i);e=document.createTextNode(e),c.parentNode.replaceChild(e,c)}t.parentNode.removeChild(t);}}catch(u){}}()/* ]]&gt; */&lt;/script&gt;\nFormat settings, CABAC      : Yes\nFormat settings, ReFrames   : 9 frames\nCodec ID                    : V_MPEG4/ISO/AVC\nDuration                    : 1h 46mn\nBit rate                    : 964 Kbps\nWidth                       : 720 pixels\nHeight                      : 304 pixels\nDisplay aspect ratio        : 2.35:1\nFrame rate mode             : Constant\nFrame rate                  : 29.970 fps\nColor space                 : YUV\nChroma subsampling          : 4:2:0\nBit depth                   : 8 bits\nScan type                   : Progressive\nBits/(Pixel*Frame)          : 0.147\nStream size                 : 732 MiB (82%)\nWriting library             : x264 core \n\nAudio\nID                          : 2\nFormat                      : AC-3\nFormat/Info                 : Audio Coding 3\nMode extension              : CM (complete main)\nFormat settings, Endianness : Big\nCodec ID                    : A_AC3\nDuration                    : 1h 46mn\nBit rate mode               : Constant\nBit rate                    : 192 Kbps\nChannel(s)                  : 2 channels\nChannel positions           : Front: L R\nSampling rate               : 44.1 KHz\nCompression mode            : Lossy\nDelay relative to video     : 9ms\nStream size                 : 146 MiB (16%)\nDefault                     : Yes\nForced                      : No","torrent":{"xt":"urn:btih:7c3ff7662cfadbbeaaa67a8c48cdfd1c800b27a2","amp;dn":"San.Andreas.2015.HQ.CAM.NEW.SOURCE.X264.AC3.MRG","amp;tr":["udp%3A%2F%2Ftracker.openbittorrent.com%3A80","udp%3A%2F%2Fopen.demonii.com%3A1337","udp%3A%2F%2Ftracker.coppersurfer.tk%3A6969","udp%3A%2F%2Fexodus.desync.com%3A6969"],"infoHash":"7c3ff7662cfadbbeaaa67a8c48cdfd1c800b27a2","infoHashBuffer":{"type":"Buffer","data":[124,63,247,102,44,250,219,190,170,166,122,140,72,205,253,28,128,11,39,162]},"announce":[],"urlList":[]}}